<?xml version="1.0" encoding="UTF-8" standalone="no"?>
<svg
   xmlns:dc="http://purl.org/dc/elements/1.1/"
   xmlns:cc="http://web.resource.org/cc/"
   xmlns:rdf="http://www.w3.org/1999/02/22-rdf-syntax-ns#"
   xmlns:svg="http://www.w3.org/2000/svg"
   xmlns="http://www.w3.org/2000/svg"
   xmlns:sodipodi="http://sodipodi.sourceforge.net/DTD/sodipodi-0.dtd"
   xmlns:inkscape="http://www.inkscape.org/namespaces/inkscape"
   version="1.1"
   id="Logo"
   width="475"
   height="295"
   viewBox="0 0 475 295"
   overflow="visible"
   enable-background="new 0 0 475 295"
   xml:space="preserve"
   sodipodi:version="0.32"
   inkscape:version="0.45.1"
   sodipodi:docname="FH-Augsburg-Logo.svg"
   inkscape:output_extension="org.inkscape.output.svg.inkscape"
   sodipodi:docbase="C:\Home\xavax\Desktop"><metadata
     id="metadata19"><rdf:RDF><cc:Work
         rdf:about=""><dc:format>image/svg+xml</dc:format><dc:type
           rdf:resource="http://purl.org/dc/dcmitype/StillImage" /></cc:Work></rdf:RDF></metadata><defs
     id="defs17" /><sodipodi:namedview
     inkscape:window-height="977"
     inkscape:window-width="1280"
     inkscape:pageshadow="2"
     inkscape:pageopacity="0.0"
     guidetolerance="10.0"
     gridtolerance="10.0"
     objecttolerance="10.0"
     borderopacity="1.0"
     bordercolor="#666666"
     pagecolor="#ffffff"
     id="base"
     inkscape:zoom="1.2813559"
     inkscape:cx="237.5"
     inkscape:cy="147.5"
     inkscape:window-x="-4"
     inkscape:window-y="-4"
     inkscape:current-layer="Logo" /><g
     id="_x33_Gesichter"><path
       id="Auge1"
       fill="#FF5E00"
       d="M40.675,90.643c0,5.867,4.772,10.644,10.652,10.644c5.871,0,10.635-4.777,10.635-10.644   c0-5.871-4.764-10.648-10.635-10.648C45.447,79.995,40.675,84.771,40.675,90.643" /><path
       id="Nase1"
       fill="#FF5E00"
       d="M100.994,42.004c-3.498,1.063-5.757,4.285-5.757,7.77c0,0.773,0.114,1.573,0.36,2.355   c0,0,32.634,107.262,38.074,125.112c-14.977,0-52.233-0.009-52.233-0.009c-4.491,0-8.121,3.639-8.121,8.121s3.63,8.112,8.112,8.121   l63.202,0.009c2.575,0,4.992-1.213,6.521-3.278c1.529-2.074,2.004-4.746,1.239-7.207L111.137,47.405   C109.827,43.111,105.292,40.699,100.994,42.004" /><path
       id="Mund1a"
       fill="#FF5E00"
       d="M80.85,212.986c-4.157,0-7.532,3.375-7.532,7.532s3.375,7.532,7.532,7.532h33.609   c4.166,0,7.532-3.375,7.532-7.532s-3.366-7.532-7.532-7.532H80.85z" /><path
       id="Mund1b"
       fill="#FF5E00"
       d="M80.85,235.75c-4.157,0-7.532,3.366-7.532,7.532c0,4.157,3.375,7.532,7.532,7.532h33.609   c4.166,0,7.532-3.375,7.532-7.532c0-4.166-3.366-7.532-7.532-7.532H80.85z" /><path
       id="Mund2"
       fill="#FF5E00"
       d="M263.785,226.029c0.105,13.395-10.292,16.567-14.476,16.55   c-4.113-0.018-14.423-3.076-14.493-16.55H263.785z M228.189,213.259c-3.357,0-6.17,2.558-6.469,5.915   c-0.923,10.31,2.224,20.25,8.64,27.281c5.221,5.695,11.953,8.851,18.949,8.851c6.987,0,13.702-3.12,18.896-8.78   c6.398-6.961,9.571-16.928,8.692-27.316c-0.29-3.366-3.111-5.95-6.478-5.95H228.189z" /><path
       id="Nase2"
       fill="#FF5E00"
       d="M249.354,42.004c3.498,1.063,5.757,4.285,5.757,7.77c0,0.773-0.114,1.573-0.36,2.355   c0,0-32.643,107.262-38.065,125.112c14.977,0,52.233-0.009,52.233-0.009c4.482,0,8.121,3.639,8.121,8.121s-3.639,8.112-8.121,8.121   l-63.193,0.009c-2.575,0-4.992-1.213-6.53-3.278c-1.529-2.074-1.986-4.746-1.239-7.207L239.22,47.405   C240.529,43.111,245.064,40.699,249.354,42.004" /><path
       id="Auge2"
       fill="#FF5E00"
       d="M164.961,90.643c0,5.867,4.781,10.644,10.644,10.644c5.871,0,10.652-4.777,10.652-10.644   c0-5.871-4.781-10.648-10.652-10.648C169.742,79.995,164.961,84.771,164.961,90.643" /><path
       id="Auge3"
       fill="#FF5E00"
       d="M289.256,90.643c0,5.867,4.772,10.644,10.644,10.644c5.862,0,10.644-4.777,10.644-10.644   c0-5.871-4.781-10.648-10.644-10.648C294.028,79.995,289.256,84.771,289.256,90.643" /><path
       id="Mund3"
       fill="#FF5E00"
       d="M390.77,224.658c-0.07,0.035-6.205,2.672-13.948,2.672h-3.823   c-7.98,0-14.186-2.654-14.247-2.681c-3.788-1.652-8.227,0.062-9.905,3.858c-1.661,3.779,0.018,8.209,3.797,9.888   c0.914,0.413,9.229,3.981,20.355,3.981h3.814c10.898,0,19.187-3.577,20.092-3.981c3.779-1.696,5.449-6.126,3.779-9.905   C398.996,224.711,394.558,222.997,390.77,224.658" /><path
       id="Nase3"
       fill="#FF5E00"
       d="M373.648,42.004c3.498,1.063,5.757,4.285,5.757,7.77c0,0.773-0.114,1.573-0.36,2.355   c0,0-32.643,107.262-38.083,125.112c14.985,0,52.242-0.009,52.242-0.009c4.491,0,8.121,3.639,8.121,8.121s-3.63,8.112-8.112,8.121   l-63.202,0.009c-2.575,0-4.992-1.213-6.521-3.278c-1.529-2.074-2.004-4.746-1.248-7.207l41.265-135.593   C364.815,43.111,369.351,40.699,373.648,42.004" /><path
       id="Auge4"
       fill="#FF5E00"
       d="M413.542,90.643c0,5.867,4.781,10.644,10.644,10.644c5.871,0,10.652-4.777,10.652-10.644   c0-5.871-4.781-10.648-10.652-10.648C418.323,79.995,413.542,84.771,413.542,90.643" /></g><rect
     id="Distanzrahmen"
     fill="none"
     width="475"
     height="295" /></svg>